<svg version="1.2" xmlns="http://www.w3.org/2000/svg" viewBox="0 0 22 22" width="22" height="22">
	<title>Linkedin</title>
	<style>
		.s0 { fill: #494949} 
	</style>
	<path id="Linkedin"   fill-rule="evenodd"  d="m20.4 12.7v7.3h-3.9v-6.8c0-1.8-0.6-2.9-2-2.9-1.1 0-1.8 0.8-2.1 1.5-0.1 0.3-0.1 0.7-0.1 1.1v7.1h-4c0 0 0.1-11.6 0-12.8h4v1.8q0 0 0 0.1v-0.1c0.5-0.9 1.5-2.1 3.6-2.1 2.6 0 4.5 1.8 4.5 5.8zm-16.2-11.7c-1.4 0-2.3 1-2.3 2.2 0 1.3 0.9 2.2 2.2 2.2 1.4 0 2.3-0.9 2.3-2.2 0-1.2-0.9-2.2-2.2-2.2zm-2 19h3.9v-12.8h-3.9z"/>
</svg>